# xmcd
#
# Track frame offsets:
#	150
#	25039
#	36956
#	51447
#	69052
#	87421
#	103803
#	124450
#	140897
#	163274
#	176645
#	196075
#
# Disc length: 3015 seconds
#
# Revision: 1
# Processed by: cddbd v1.5.2PL0 Copyright (c) Steve Scherf et al.
# Submitted via: CDmax 1.9
#
DISCID=ae0bc50c
DTITLE=Jeb Loy Nichols - Country Hustle
DYEAR=2017
DGENRE=Country
TTITLE0=Come See Me
TTITLE1=Maisy Hay
TTITLE2=Don't Drop Me
TTITLE3=That's How We're Living
TTITLE4=Highwire
TTITLE5=Katie Blue
TTITLE6=Till The Teardrops Stop
TTITLE7=Never Too Much
TTITLE8=That's All I Want
TTITLE9=You Got In
TTITLE10=Regret
TTITLE11=Long Live The Loser
EXTD=
EXTT0=
EXTT1=
EXTT2=
EXTT3=
EXTT4=
EXTT5=
EXTT6=
EXTT7=
EXTT8=
EXTT9=
EXTT10=
EXTT11=
PLAYORDER=
